# xmcd
#
# Track frame offsets:
# 150
# 16887
# 41575
# 59314
# 84812
# 103500
# 118530
# 147240
# 168987
# 201767
#
# Disc length: 2896 seconds
#
#
# Revision: 1
# Processed by: cddbd v1.5.2PL0 Copyright (c) Steve Scherf et al.
# Submitted via: FreeRIP 2.12 
#
DISCID=780b4e0a
DTITLE=Michael de Jong - The Waiting Game
DYEAR=1999
DGENRE=Blues
TTITLE0=Go Ahead And Teel Me
TTITLE1=The Waiting Game
TTITLE2=Early Morning Train
TTITLE3=Trow This Dog A Bone
TTITLE4=Those Were The Best Days
TTITLE5=Second Hand Shoes
TTITLE6=Oh, My Love
TTITLE7=Last Of The Wild Horses
TTITLE8=Desperate To Believe
TTITLE9=Can´t Let Go
EXTD=
EXTT0=
EXTT1=
EXTT2=
EXTT3=
EXTT4=
EXTT5=
EXTT6=
EXTT7=
EXTT8=
EXTT9=
PLAYORDER=
